<svg width="114" height="35" viewBox="0 0 114 35" fill="none" xmlns="http://www.w3.org/2000/svg">
<path d="M8.304 33.8402L7.824 29.0402H4.224L3.744 33.8402H0L3.36 0.240234H9.12L12.528 33.8402H8.304ZM4.8 22.7522L4.608 25.1042H7.44L7.248 22.8962C6.64 16.0802 6.224 10.0162 6 4.70423C5.808 9.40824 5.408 15.4242 4.8 22.7522Z" fill="black"/>
<path d="M16.5776 33.8402V0.240234H23.3456C25.2016 0.240234 26.4496 0.608234 27.0896 1.34423C27.7296 2.08023 28.0496 3.47223 28.0496 5.52024V15.8882C28.0496 17.9362 27.7296 19.3282 27.0896 20.0642C26.4496 20.8002 25.2016 21.1682 23.3456 21.1682H20.7536V33.8402H16.5776ZM20.7536 17.2322H22.5296C23.1056 17.2322 23.4736 17.1042 23.6336 16.8482C23.7936 16.5922 23.8736 16.0802 23.8736 15.3122V6.09624C23.8736 5.32823 23.7936 4.81623 23.6336 4.56024C23.4736 4.30424 23.1056 4.17624 22.5296 4.17624H20.7536V17.2322Z" fill="black"/>
<path d="M38.8853 33.8402L38.4053 29.0402H34.8053L34.3253 33.8402H30.5812L33.9412 0.240234H39.7013L43.1093 33.8402H38.8853ZM35.3813 22.7522L35.1893 25.1042H38.0213L37.8293 22.8962C37.2213 16.0802 36.8052 10.0162 36.5812 4.70423C36.3892 9.40824 35.9893 15.4242 35.3813 22.7522Z" fill="black"/>
<path d="M58.7269 21.8882V29.2802C58.7269 31.2002 58.9349 32.7202 59.3509 33.8402H54.9829C54.6949 33.2322 54.5509 31.8882 54.5509 29.8082V21.0722C54.5509 20.2722 54.4389 19.7122 54.2149 19.3922C53.9909 19.0402 53.5589 18.8642 52.9189 18.8642H51.2869V33.8402H47.1109V0.240234H53.9749C55.8309 0.240234 57.0789 0.608234 57.7189 1.34423C58.3909 2.08023 58.7269 3.47223 58.7269 5.52024V11.9522C58.7269 13.4882 58.5509 14.6402 58.1989 15.4082C57.8469 16.1442 57.2389 16.6402 56.3749 16.8962C57.2389 17.1522 57.8469 17.6642 58.1989 18.4322C58.5509 19.2002 58.7269 20.3522 58.7269 21.8882ZM54.5509 13.0082V6.09624C54.5509 5.32823 54.4709 4.81623 54.3109 4.56024C54.1509 4.30424 53.7829 4.17624 53.2069 4.17624H51.2869V14.9282H53.2069C53.7829 14.9282 54.1509 14.8002 54.3109 14.5442C54.4709 14.2882 54.5509 13.7762 54.5509 13.0082Z" fill="black"/>
<path d="M67.6099 4.17624V14.3522H71.4499V18.2882H67.6099V29.9042H72.3139V33.8402H63.4339V0.240234H72.3139V4.17624H67.6099Z" fill="black"/>
<path d="M76.5683 33.8402V0.240234H80.7443V29.9042H84.8242V33.8402H76.5683Z" fill="black"/>
<path d="M108.964 28.224V24C108.964 22.72 108.772 21.712 108.388 20.976C108.004 20.24 107.172 19.184 105.892 17.808C104.292 15.984 103.22 14.528 102.676 13.44C102.164 12.32 101.908 10.752 101.908 8.736V5.28C101.908 3.232 102.228 1.84 102.868 1.104C103.54 0.368 104.804 0 106.66 0H108.436C110.292 0 111.54 0.368 112.18 1.104C112.82 1.84 113.14 3.232 113.14 5.28V11.856H109.204V5.856C109.204 5.088 109.124 4.576 108.964 4.32C108.836 4.064 108.468 3.936 107.86 3.936H107.428C106.852 3.936 106.484 4.064 106.324 4.32C106.164 4.576 106.084 5.056 106.084 5.76V8.928C106.084 10.208 106.26 11.216 106.612 11.952C106.996 12.688 107.828 13.744 109.108 15.12C110.74 16.944 111.812 18.416 112.324 19.536C112.868 20.624 113.14 22.176 113.14 24.192V28.8C113.14 30.848 112.82 32.24 112.18 32.976C111.54 33.712 110.292 34.08 108.436 34.08H106.66C104.804 34.08 103.54 33.712 102.868 32.976C102.228 32.24 101.908 30.848 101.908 28.8V20.976H105.844V28.224C105.844 28.992 105.908 29.504 106.036 29.76C106.196 30.016 106.58 30.144 107.188 30.144H107.62C108.196 30.144 108.564 30.016 108.724 29.76C108.884 29.504 108.964 28.992 108.964 28.224Z" fill="black"/>
<path d="M88.1826 19.2272C85.4719 17.8018 84.679 15.6368 85.0197 12.8804C88.1885 13.5571 89.4527 16.1679 88.1826 19.2272Z" fill="black"/>
<path d="M94.3493 6.70484C93.4801 3.87195 94.3081 2.1114 96.8851 1.16422C97.583 3.91491 96.5974 6.12428 94.3493 6.70484Z" fill="black"/>
<path d="M88.7558 17.914C90.2151 15.8731 92.2307 15.801 94.7652 17.6991C92.8161 19.6306 90.8379 19.7014 88.7558 17.914Z" fill="black"/>
<path d="M93.0579 10.0332C94.9029 7.65566 96.818 7.38961 98.9082 7.72949C97.5354 10.3759 95.3792 11.2733 93.0579 10.0332Z" fill="black"/>
<path d="M88.3276 9.39552C90.8165 10.537 91.3563 12.4624 91.2516 14.7795C89.045 14.005 88.0456 12.2689 88.3276 9.39552Z" fill="black"/>
<path d="M82.0159 16.9867C84.5982 17.6401 85.6083 19.4358 84.9919 22.4901C82.4734 21.8438 81.3987 19.8267 82.0159 16.9867Z" fill="black"/>
<path d="M84.8762 22.6097C86.9744 20.6042 88.7786 20.554 90.9138 22.4237C89.0805 24.3477 87.5145 24.4133 84.8762 22.6097Z" fill="black"/>
<path d="M97.7902 12.6511C95.801 14.2798 93.7467 14.6713 91.5162 13.8217C92.9675 11.7046 95.508 11.2035 97.7902 12.6511Z" fill="black"/>
<path d="M92.9945 10.7809C91.4769 9.29535 90.4991 7.79123 90.8784 5.5915C93.1439 6.56465 93.8556 8.16961 92.9945 10.7809Z" fill="black"/>
<path fill-rule="evenodd" clip-rule="evenodd" d="M94.1913 7.91478C93.6613 9.47973 92.7818 11.6049 91.3802 14.3028C89.9625 17.0317 87.6529 19.8564 85.3573 22.2702C83.0586 24.6872 80.7553 26.7115 79.3318 27.8398L78.9082 27.2658C80.3069 26.1572 82.5857 24.1551 84.8608 21.7629C87.1389 19.3674 89.3949 16.5999 90.7662 13.9602C92.1537 11.2896 93.0174 9.19911 93.5333 7.67544C94.0536 6.13903 94.2109 5.20613 94.2109 4.83984H94.9082C94.9082 5.3339 94.7169 6.36258 94.1913 7.91478Z" fill="black"/>
</svg>
